<?xml version="1.0"?>
<svg xmlns="http://www.w3.org/2000/svg" xmlns:xlink="http://www.w3.org/1999/xlink" version="1.1" id="Capa_1" x="0px" y="0px" viewBox="0 0 480 480" style="enable-background:new 0 0 480 480;" xml:space="preserve" width="512px" height="512px" class=""><g><path id="SVGCleanerId_0" style="fill:#6CC8EF" d="M360,183.999l-8,40v32l8,64H120l-16-128l136-136L360,183.999z" data-original="#A9BFD1" class="" data-old_color="#A9BFD1"/><path id="SVGCleanerId_1" style="fill:#FFFFFF" d="M8,335.999h464v136H8V335.999z" data-original="#E8CDAF" class="" data-old_color="#E8CDAF"/><path id="SVGCleanerId_2" style="fill:#6CC8EF" d="M344.003,72.003l40-40l32.001,32.001l-40,40L344.003,72.003z" data-original="#EF937D" class="" data-old_color="#EF937D"/><path id="SVGCleanerId_3" style="fill:#6CC8EF" d="M192,175.999h96v144h-96V175.999z" data-original="#FFD884" class="" data-old_color="#FFD884"/><path id="SVGCleanerId_4" style="fill:#6CC8EF" d="M264,471.999l-48-48l56-32l-40-40l112,32l-40,40l104,48H264z" data-original="#B59B7C" class="" data-old_color="#B59B7C"/><g>
	<path style="fill:#2273AF" d="M64,119.999c-4.418-0.001-7.999-3.583-7.998-8.002c0-2.121,0.843-4.154,2.342-5.654l56-56   c3.178-3.069,8.243-2.981,11.312,0.197c2.994,3.1,2.994,8.015,0,11.115l-56,56C68.156,119.155,66.122,119.999,64,119.999z" data-original="#2273AF" class="active-path" data-old_color="#2273AF"/>
	<path style="fill:#2273AF" d="M48,79.999c-4.418-0.001-7.999-3.583-7.998-8.002c0-2.121,0.843-4.154,2.342-5.654l24-24   c3.069-3.178,8.134-3.266,11.312-0.196s3.266,8.134,0.196,11.312c-0.064,0.067-0.13,0.132-0.196,0.196l-24,24   C52.156,79.155,50.122,79.999,48,79.999z" data-original="#2273AF" class="active-path" data-old_color="#2273AF"/>
	<path style="fill:#2273AF" d="M144,39.999c-4.418-0.001-7.999-3.583-7.998-8.002c0-2.121,0.843-4.154,2.342-5.654l8-8   c3.069-3.178,8.134-3.266,11.312-0.197s3.266,8.134,0.197,11.312c-0.064,0.067-0.13,0.132-0.197,0.197l-8,8   C148.156,39.155,146.122,39.999,144,39.999L144,39.999z" data-original="#2273AF" class="active-path" data-old_color="#2273AF"/>
	<path style="fill:#2273AF" d="M80,311.999c-3.905-0.005-7.236-2.829-7.88-6.68l-8-48c-0.624-4.374,2.416-8.426,6.79-9.05   c4.226-0.603,8.181,2.218,8.986,6.41l8,48c0.728,4.356-2.212,8.478-6.568,9.208C80.889,311.963,80.445,312.001,80,311.999z" data-original="#2273AF" class="active-path" data-old_color="#2273AF"/>
	<path style="fill:#2273AF" d="M48,303.999c-3.799-0.003-7.072-2.678-7.832-6.4l-8-40c-0.779-4.349,2.114-8.506,6.463-9.286   c4.202-0.753,8.254,1.925,9.209,6.086l8,40c0.884,4.329-1.908,8.555-6.237,9.439c-0.001,0-0.002,0-0.003,0.001   C49.074,303.949,48.537,304.003,48,303.999z" data-original="#2273AF" class="active-path" data-old_color="#2273AF"/>
	<path style="fill:#2273AF" d="M400,311.999c-3.977-0.003-7.347-2.928-7.912-6.864l-8-56c-0.627-4.374,2.41-8.429,6.784-9.056   c4.374-0.627,8.429,2.41,9.056,6.784l8,56c0.627,4.374-2.409,8.428-6.783,9.055C400.766,311.972,400.383,311.999,400,311.999   L400,311.999z" data-original="#2273AF" class="active-path" data-old_color="#2273AF"/>
</g><path id="SVGCleanerId_5" style="fill:#ED1651" d="M256,247.999c-4.418,0-8-3.582-8-8v-16c0-4.418,3.582-8,8-8s8,3.582,8,8v16  C264,244.417,260.418,247.999,256,247.999z" data-original="#594329" class="" data-old_color="#594329"/><path id="SVGCleanerId_6" style="fill:#2273AF" d="M264,135.999c-4.418-0.001-7.999-3.583-7.998-8.002  c0-2.121,0.843-4.155,2.342-5.654l10.344-10.344l-18.344-18.344c-3.123-3.124-3.123-8.188,0-11.312l24-24  c3.178-3.069,8.242-2.982,11.312,0.196c2.994,3.1,2.994,8.015,0,11.116l-18.344,18.344l18.344,18.344  c3.123,3.124,3.123,8.188,0,11.312l-16,16C268.156,135.155,266.122,135.999,264,135.999L264,135.999z" data-original="#2273AF" class="active-path" data-old_color="#2273AF"/><path id="SVGCleanerId_7" style="fill:#2273AF" d="M392,223.999c-4.418,0-8-3.582-8-8v-8c0-4.418,3.582-8,8-8s8,3.582,8,8v8  C400,220.417,396.418,223.999,392,223.999z" data-original="#2273AF" class="active-path" data-old_color="#2273AF"/><path id="SVGCleanerId_8" style="fill:#2273AF" d="M72,231.999c-4.418,0-8-3.582-8-8v-8c0-4.418,3.582-8,8-8s8,3.582,8,8v8  C80,228.417,76.418,231.999,72,231.999z" data-original="#2273AF" class="active-path" data-old_color="#2273AF"/><g>
	<path style="fill:#ED1651" d="M125.656,418.343l-18.344-18.344l26.344-26.344c3.07-3.178,2.982-8.242-0.196-11.312   c-3.1-2.994-8.015-2.994-11.116,0l-32,32c-3.123,3.124-3.123,8.188,0,11.312l18.344,18.344l-48,48h22.624l42.344-42.344   C128.779,426.531,128.779,421.467,125.656,418.343z" data-original="#594329" class="" data-old_color="#594329"/>
	<path style="fill:#ED1651" d="M435.768,407.543l17.888-17.888c3.123-3.124,3.123-8.188,0-11.312l-16-16   c-3.178-3.07-8.242-2.982-11.312,0.196c-2.995,3.1-2.995,8.016,0,11.116l10.344,10.344l-18.344,18.344   c-3.124,3.124-3.124,8.19,0.001,11.314c0.144,0.144,0.293,0.282,0.447,0.414L472,459.679v-21.072L435.768,407.543z" data-original="#594329" class="" data-old_color="#594329"/>
</g><path id="SVGCleanerId_9" style="fill:#6CC8EF" d="M304,471.999v-48l104,48H304z" data-original="#8C6337" class="" data-old_color="#8C6337"/><path id="SVGCleanerId_10" style="fill:#6CC8EF" d="M272,471.999v-80l-56,32l48,48H272z" data-original="#8C6337" class="" data-old_color="#8C6337"/><path id="SVGCleanerId_11" style="fill:#2273AF" d="M160,223.999c-2.122,0-4.156-0.844-5.656-2.344l-24-24  c-3.123-3.124-3.123-8.188,0-11.312l10.344-10.344l-10.344-10.344c-3.069-3.178-2.981-8.243,0.197-11.312  c3.1-2.994,8.015-2.994,11.115,0l16,16c3.123,3.124,3.123,8.188,0,11.312l-10.344,10.344l18.344,18.344  c3.124,3.125,3.123,8.19-0.002,11.314C164.154,223.156,162.121,223.999,160,223.999L160,223.999z" data-original="#2273AF" class="active-path" data-old_color="#2273AF"/><g>
	<path id="SVGCleanerId_0_1_" style="fill:#6CC8EF" d="M360,183.999l-8,40v32l8,64H120l-16-128l136-136L360,183.999z" data-original="#A9BFD1" class="" data-old_color="#A9BFD1"/>
</g><g>
	<path id="SVGCleanerId_1_1_" style="fill:#FFFFFF" d="M8,335.999h464v136H8V335.999z" data-original="#E8CDAF" class="" data-old_color="#E8CDAF"/>
</g><g>
	<path id="SVGCleanerId_2_1_" style="fill:#6CC8EF" d="M344.003,72.003l40-40l32.001,32.001l-40,40L344.003,72.003z" data-original="#EF937D" class="" data-old_color="#EF937D"/>
</g><g>
	<path id="SVGCleanerId_3_1_" style="fill:#6CC8EF" d="M192,175.999h96v144h-96V175.999z" data-original="#FFD884" class="" data-old_color="#FFD884"/>
</g><g>
	<path id="SVGCleanerId_4_1_" style="fill:#6CC8EF" d="M264,471.999l-48-48l56-32l-40-40l112,32l-40,40l104,48H264z" data-original="#B59B7C" class="" data-old_color="#B59B7C"/>
</g><g>
	<path style="fill:#2273AF" d="M64,119.999c-4.418-0.001-7.999-3.583-7.998-8.002c0-2.121,0.843-4.154,2.342-5.654l56-56   c3.178-3.069,8.243-2.981,11.312,0.197c2.994,3.1,2.994,8.015,0,11.115l-56,56C68.156,119.155,66.122,119.999,64,119.999z" data-original="#2273AF" class="active-path" data-old_color="#2273AF"/>
	<path style="fill:#2273AF" d="M48,79.999c-4.418-0.001-7.999-3.583-7.998-8.002c0-2.121,0.843-4.154,2.342-5.654l24-24   c3.069-3.178,8.134-3.266,11.312-0.196s3.266,8.134,0.196,11.312c-0.064,0.067-0.13,0.132-0.196,0.196l-24,24   C52.156,79.155,50.122,79.999,48,79.999z" data-original="#2273AF" class="active-path" data-old_color="#2273AF"/>
	<path style="fill:#2273AF" d="M144,39.999c-4.418-0.001-7.999-3.583-7.998-8.002c0-2.121,0.843-4.154,2.342-5.654l8-8   c3.069-3.178,8.134-3.266,11.312-0.197s3.266,8.134,0.197,11.312c-0.064,0.067-0.13,0.132-0.197,0.197l-8,8   C148.156,39.155,146.122,39.999,144,39.999L144,39.999z" data-original="#2273AF" class="active-path" data-old_color="#2273AF"/>
	<path style="fill:#2273AF" d="M80,311.999c-3.905-0.005-7.236-2.829-7.88-6.68l-8-48c-0.624-4.374,2.416-8.426,6.79-9.05   c4.226-0.603,8.181,2.218,8.986,6.41l8,48c0.728,4.356-2.212,8.478-6.568,9.208C80.889,311.963,80.445,312.001,80,311.999z" data-original="#2273AF" class="active-path" data-old_color="#2273AF"/>
	<path style="fill:#2273AF" d="M48,303.999c-3.799-0.003-7.072-2.678-7.832-6.4l-8-40c-0.779-4.349,2.114-8.506,6.463-9.286   c4.202-0.753,8.254,1.925,9.209,6.086l8,40c0.884,4.329-1.908,8.555-6.237,9.439c-0.001,0-0.002,0-0.003,0.001   C49.074,303.949,48.537,304.003,48,303.999z" data-original="#2273AF" class="active-path" data-old_color="#2273AF"/>
	<path style="fill:#2273AF" d="M400,311.999c-3.977-0.003-7.347-2.928-7.912-6.864l-8-56c-0.627-4.374,2.41-8.429,6.784-9.056   c4.374-0.627,8.429,2.41,9.056,6.784l8,56c0.627,4.374-2.409,8.428-6.783,9.055C400.766,311.972,400.383,311.999,400,311.999   L400,311.999z" data-original="#2273AF" class="active-path" data-old_color="#2273AF"/>
</g><g>
	<path id="SVGCleanerId_5_1_" style="fill:#ED1651" d="M256,247.999c-4.418,0-8-3.582-8-8v-16c0-4.418,3.582-8,8-8s8,3.582,8,8v16   C264,244.417,260.418,247.999,256,247.999z" data-original="#594329" class="" data-old_color="#594329"/>
</g><g>
	<path id="SVGCleanerId_6_1_" style="fill:#2273AF" d="M264,135.999c-4.418-0.001-7.999-3.583-7.998-8.002   c0-2.121,0.843-4.155,2.342-5.654l10.344-10.344l-18.344-18.344c-3.123-3.124-3.123-8.188,0-11.312l24-24   c3.178-3.069,8.242-2.982,11.312,0.196c2.994,3.1,2.994,8.015,0,11.116l-18.344,18.344l18.344,18.344   c3.123,3.124,3.123,8.188,0,11.312l-16,16C268.156,135.155,266.122,135.999,264,135.999L264,135.999z" data-original="#2273AF" class="active-path" data-old_color="#2273AF"/>
</g><g>
	<path id="SVGCleanerId_7_1_" style="fill:#2273AF" d="M392,223.999c-4.418,0-8-3.582-8-8v-8c0-4.418,3.582-8,8-8s8,3.582,8,8v8   C400,220.417,396.418,223.999,392,223.999z" data-original="#2273AF" class="active-path" data-old_color="#2273AF"/>
</g><g>
	<path id="SVGCleanerId_8_1_" style="fill:#2273AF" d="M72,231.999c-4.418,0-8-3.582-8-8v-8c0-4.418,3.582-8,8-8s8,3.582,8,8v8   C80,228.417,76.418,231.999,72,231.999z" data-original="#2273AF" class="active-path" data-old_color="#2273AF"/>
</g><g>
	<path id="SVGCleanerId_9_1_" style="fill:#6CC8EF" d="M304,471.999v-48l104,48H304z" data-original="#8C6337" class="" data-old_color="#8C6337"/>
</g><g>
	<path id="SVGCleanerId_10_1_" style="fill:#6CC8EF" d="M272,471.999v-80l-56,32l48,48H272z" data-original="#8C6337" class="" data-old_color="#8C6337"/>
</g><g>
	<path id="SVGCleanerId_11_1_" style="fill:#2273AF" d="M160,223.999c-2.122,0-4.156-0.844-5.656-2.344l-24-24   c-3.123-3.124-3.123-8.188,0-11.312l10.344-10.344l-10.344-10.344c-3.069-3.178-2.981-8.243,0.197-11.312   c3.1-2.994,8.015-2.994,11.115,0l16,16c3.123,3.124,3.123,8.188,0,11.312l-10.344,10.344l18.344,18.344   c3.124,3.125,3.123,8.19-0.002,11.314C164.154,223.156,162.121,223.999,160,223.999L160,223.999z" data-original="#2273AF" class="active-path" data-old_color="#2273AF"/>
</g><path id="SVGCleanerId_12" d="M416,191.999c4.418-0.001,7.999-3.583,7.998-8.002c0-2.121-0.843-4.155-2.342-5.654l-104-104  c-3.349-2.882-8.4-2.502-11.282,0.847c-2.591,3.011-2.58,7.467,0.026,10.465l104,104C411.886,191.142,413.898,191.984,416,191.999  L416,191.999z" data-original="#000000" class="" style="fill:#ED1651" data-old_color="#000000"/><path id="SVGCleanerId_13" d="M258.4,37.655c3.178,3.07,8.242,2.982,11.312-0.196c2.994-3.1,2.994-8.016,0-11.116l-24-24  c-3.124-3.123-8.188-3.123-11.312,0l-176,176c-3.178,3.069-3.266,8.134-0.197,11.312s8.134,3.266,11.312,0.197  c0.067-0.064,0.132-0.13,0.197-0.197L240,19.311L258.4,37.655z" data-original="#000000" class="" style="fill:#ED1651" data-old_color="#000000"/><path id="SVGCleanerId_14" d="M350.464,231.839c0.526,0.11,1.063,0.164,1.6,0.16c3.799-0.003,7.072-2.678,7.832-6.4l8-40  c0.717-4.36-2.236-8.475-6.596-9.192c-4.149-0.682-8.118,1.964-9.084,6.056l-8,40C343.371,226.774,346.16,230.959,350.464,231.839  L350.464,231.839z" data-original="#000000" class="" style="fill:#ED1651" data-old_color="#000000"/><path id="SVGCleanerId_15" d="M351.04,248.063c-4.382,0.549-7.491,4.545-6.944,8.928l6.872,55.008H296v-136c0-4.418-3.582-8-8-8h-96  c-4.418,0-8,3.582-8,8v136h-56.904L112,191.007c-0.444-4.396-4.368-7.599-8.764-7.155s-7.599,4.368-7.155,8.764  c0.013,0.126,0.028,0.251,0.047,0.376l16,128c0.497,3.979,3.863,6.975,7.872,7.008h240c4.418,0.034,8.027-3.52,8.062-7.938  c0.003-0.352-0.018-0.704-0.062-1.054l-8-64c-0.547-4.384-4.545-7.495-8.929-6.948C351.061,248.06,351.05,248.062,351.04,248.063  L351.04,248.063z M200,183.999h80v128h-80V183.999z" data-original="#000000" class="" style="fill:#ED1651" data-old_color="#000000"/><path id="SVGCleanerId_16" d="M378.4,26.343l-24,24c-3.07,3.178-2.982,8.242,0.196,11.312c3.1,2.995,8.016,2.995,11.116,0  L384,43.311l20.72,20.688L370.4,98.343c-3.178,3.07-3.266,8.134-0.196,11.312c3.07,3.178,8.134,3.266,11.312,0.196  c0.067-0.064,0.132-0.13,0.196-0.196l40-40c3.123-3.124,3.123-8.188,0-11.312l-32-32C386.588,23.22,381.524,23.22,378.4,26.343z" data-original="#000000" class="" style="fill:#ED1651" data-old_color="#000000"/><path id="SVGCleanerId_17" d="M411.384,464.735l-93.6-43.2l31.888-31.888c3.122-3.126,3.12-8.191-0.006-11.314  c-0.959-0.958-2.146-1.657-3.45-2.03l-112-32c-4.249-1.211-8.675,1.252-9.886,5.501c-0.795,2.789-0.018,5.79,2.03,7.843  l32.592,32.592l-46.904,26.808c-3.836,2.193-5.167,7.08-2.974,10.916c0.352,0.616,0.785,1.182,1.286,1.684l48,48  c1.495,1.499,3.523,2.345,5.64,2.352h144c4.418,0,8-3.581,8-8c0-3.121-1.815-5.957-4.648-7.264L411.384,464.735L411.384,464.735z   M328.8,387.999l-30.4,30.4c-1.482,1.487-2.316,3.5-2.32,5.6H296v40h-16v-72h-0.176c0.062-2.099-0.718-4.136-2.168-5.656  l-18.136-18.176L328.8,387.999z M229.096,425.751L264,405.783v54.904L229.096,425.751z M312,463.999v-27.496l59.608,27.496H312z" data-original="#000000" class="" style="fill:#ED1651" data-old_color="#000000"/><path id="SVGCleanerId_18" d="M64,119.999c2.122,0,4.156-0.844,5.656-2.344l56-56c2.898-3.335,2.544-8.388-0.791-11.286  c-2.998-2.605-7.454-2.617-10.465-0.026l-56,56c-3.124,3.125-3.123,8.19,0.001,11.314C59.887,119.143,61.899,119.984,64,119.999  L64,119.999z" data-original="#000000" class="" style="fill:#ED1651" data-old_color="#000000"/><path id="SVGCleanerId_19" d="M48,79.999c2.122,0,4.156-0.844,5.656-2.344l24-24c3.349-2.882,3.728-7.933,0.847-11.282  c-2.882-3.349-7.933-3.728-11.282-0.847c-0.293,0.252-0.567,0.525-0.821,0.817l-24,24c-3.124,3.125-3.123,8.19,0.001,11.314  C43.887,79.143,45.899,79.984,48,79.999z" data-original="#000000" class="" style="fill:#ED1651" data-old_color="#000000"/><path id="SVGCleanerId_20" d="M149.688,37.655l8-8c2.97-3.271,2.726-8.33-0.545-11.301c-3.046-2.765-7.692-2.77-10.743-0.011l-8,8  c-3.178,3.069-3.266,8.134-0.197,11.312s8.134,3.266,11.312,0.197c0.067-0.064,0.132-0.13,0.197-0.197H149.688z" data-original="#000000" class="" style="fill:#ED1651" data-old_color="#000000"/><path id="SVGCleanerId_21" d="M80,311.999c0.445,0.002,0.889-0.036,1.328-0.112c4.356-0.73,7.296-4.852,6.568-9.208l-8-48  c-0.624-4.374-4.676-7.414-9.05-6.79s-7.414,4.676-6.79,9.05c0.018,0.127,0.039,0.254,0.064,0.38l8,48  C72.764,309.17,76.095,311.994,80,311.999z" data-original="#000000" class="" style="fill:#ED1651" data-old_color="#000000"/><path id="SVGCleanerId_22" d="M48,303.999c0.537,0.004,1.074-0.05,1.6-0.16c4.333-0.866,7.143-5.08,6.278-9.412  c-0.002-0.009-0.004-0.018-0.006-0.028l-8-40c-1.015-4.3-5.324-6.963-9.624-5.948c-4.092,0.966-6.738,4.935-6.056,9.084l8,40  C40.923,301.274,44.19,303.978,48,303.999L48,303.999z" data-original="#000000" class="" style="fill:#ED1651" data-old_color="#000000"/><path id="SVGCleanerId_23" d="M400,311.999c4.418,0.005,8.004-3.573,8.009-7.991c0-0.383-0.027-0.766-0.081-1.145l-8-56  c-0.627-4.374-4.682-7.411-9.056-6.784c-4.374,0.627-7.411,4.682-6.784,9.056l8,56C392.653,309.072,396.023,311.996,400,311.999  L400,311.999z" data-original="#000000" class="" style="fill:#ED1651" data-old_color="#000000"/><path id="SVGCleanerId_24" d="M256,215.999c-4.418,0-8,3.582-8,8v16c0,4.418,3.582,8,8,8s8-3.582,8-8v-16  C264,219.581,260.418,215.999,256,215.999z" data-original="#000000" class="" style="fill:#ED1651" data-old_color="#000000"/><path id="SVGCleanerId_25" d="M285.688,58.343c-3.124-3.123-8.188-3.123-11.312,0l-24,24c-3.123,3.124-3.123,8.188,0,11.312  l18.344,18.344l-10.32,10.344c-3.178,3.07-3.266,8.134-0.196,11.312c3.07,3.178,8.134,3.266,11.312,0.196  c0.067-0.064,0.132-0.13,0.196-0.196l16-16c3.123-3.124,3.123-8.188,0-11.312l-18.368-18.344l18.344-18.344  C288.811,66.531,288.811,61.467,285.688,58.343L285.688,58.343z" data-original="#000000" class="" style="fill:#ED1651" data-old_color="#000000"/><path id="SVGCleanerId_26" d="M66.4,477.655c3.124,3.123,8.188,3.123,11.312,0l48-48c3.123-3.124,3.123-8.188,0-11.312  l-18.368-18.344l26.344-26.344c2.97-3.271,2.726-8.33-0.545-11.301c-3.046-2.766-7.692-2.77-10.743-0.011l-32,32  c-3.123,3.124-3.123,8.188,0,11.312l18.32,18.344L66.4,466.343C63.277,469.467,63.277,474.531,66.4,477.655z" data-original="#000000" class="" style="fill:#ED1651" data-old_color="#000000"/><path id="SVGCleanerId_27" d="M8,343.999h80c4.418,0,8-3.582,8-8s-3.582-8-8-8H8c-4.418,0-8,3.582-8,8S3.582,343.999,8,343.999z" data-original="#000000" class="" style="fill:#ED1651" data-old_color="#000000"/><path id="SVGCleanerId_28" d="M472,327.999h-80c-4.418,0-8,3.582-8,8s3.582,8,8,8h80c4.418,0,8-3.582,8-8  S476.418,327.999,472,327.999z" data-original="#000000" class="" style="fill:#ED1651" data-old_color="#000000"/><path id="SVGCleanerId_29" d="M392,223.999c4.418,0,8-3.582,8-8v-8c0-4.418-3.582-8-8-8s-8,3.582-8,8v8  C384,220.417,387.582,223.999,392,223.999z" data-original="#000000" class="" style="fill:#ED1651" data-old_color="#000000"/><path id="SVGCleanerId_30" d="M72,231.999c4.418,0,8-3.582,8-8v-8c0-4.418-3.582-8-8-8s-8,3.582-8,8v8  C64,228.417,67.582,231.999,72,231.999z" data-original="#000000" class="" style="fill:#ED1651" data-old_color="#000000"/><path id="SVGCleanerId_31" d="M416.04,408.359c0.102,2.246,1.144,4.345,2.872,5.784l48,40c3.461,2.746,8.493,2.166,11.239-1.295  c2.653-3.344,2.213-8.182-0.999-10.993l-41.272-34.4l17.808-17.808c3.123-3.124,3.123-8.188,0-11.312l-16-16  c-3.255-2.988-8.316-2.771-11.303,0.484c-2.814,3.066-2.807,7.778,0.015,10.836l10.32,10.344l-18.32,18.344  C416.802,403.927,415.946,406.111,416.04,408.359L416.04,408.359z" data-original="#000000" class="" style="fill:#ED1651" data-old_color="#000000"/><path id="SVGCleanerId_32" d="M130.4,197.655l24,24c3.178,3.069,8.243,2.981,11.312-0.197c2.994-3.1,2.994-8.015,0-11.115  l-18.368-18.344l10.344-10.344c3.123-3.124,3.123-8.188,0-11.312l-16-16c-2.97-3.271-8.03-3.515-11.301-0.545  s-3.515,8.03-0.545,11.301c0.177,0.194,0.363,0.38,0.557,0.556l10.321,10.344l-10.32,10.344  C127.277,189.467,127.277,194.531,130.4,197.655z" data-original="#000000" class="" style="fill:#ED1651" data-old_color="#000000"/><g>
	<path id="SVGCleanerId_12_1_" d="M416,191.999c4.418-0.001,7.999-3.583,7.998-8.002c0-2.121-0.843-4.155-2.342-5.654l-104-104   c-3.349-2.882-8.4-2.502-11.282,0.847c-2.591,3.011-2.58,7.467,0.026,10.465l104,104C411.886,191.142,413.898,191.984,416,191.999   L416,191.999z" data-original="#000000" class="" style="fill:#ED1651" data-old_color="#000000"/>
</g><g>
	<path id="SVGCleanerId_13_1_" d="M258.4,37.655c3.178,3.07,8.242,2.982,11.312-0.196c2.994-3.1,2.994-8.016,0-11.116l-24-24   c-3.124-3.123-8.188-3.123-11.312,0l-176,176c-3.178,3.069-3.266,8.134-0.197,11.312s8.134,3.266,11.312,0.197   c0.067-0.064,0.132-0.13,0.197-0.197L240,19.311L258.4,37.655z" data-original="#000000" class="" style="fill:#ED1651" data-old_color="#000000"/>
</g><g>
	<path id="SVGCleanerId_14_1_" d="M350.464,231.839c0.526,0.11,1.063,0.164,1.6,0.16c3.799-0.003,7.072-2.678,7.832-6.4l8-40   c0.717-4.36-2.236-8.475-6.596-9.192c-4.149-0.682-8.118,1.964-9.084,6.056l-8,40C343.371,226.774,346.16,230.959,350.464,231.839   L350.464,231.839z" data-original="#000000" class="" style="fill:#ED1651" data-old_color="#000000"/>
</g><g>
	<path id="SVGCleanerId_15_1_" d="M351.04,248.063c-4.382,0.549-7.491,4.545-6.944,8.928l6.872,55.008H296v-136c0-4.418-3.582-8-8-8   h-96c-4.418,0-8,3.582-8,8v136h-56.904L112,191.007c-0.444-4.396-4.368-7.599-8.764-7.155s-7.599,4.368-7.155,8.764   c0.013,0.126,0.028,0.251,0.047,0.376l16,128c0.497,3.979,3.863,6.975,7.872,7.008h240c4.418,0.034,8.027-3.52,8.062-7.938   c0.003-0.352-0.018-0.704-0.062-1.054l-8-64c-0.547-4.384-4.545-7.495-8.929-6.948C351.061,248.06,351.05,248.062,351.04,248.063   L351.04,248.063z M200,183.999h80v128h-80V183.999z" data-original="#000000" class="" style="fill:#ED1651" data-old_color="#000000"/>
</g><g>
	<path id="SVGCleanerId_16_1_" d="M378.4,26.343l-24,24c-3.07,3.178-2.982,8.242,0.196,11.312c3.1,2.995,8.016,2.995,11.116,0   L384,43.311l20.72,20.688L370.4,98.343c-3.178,3.07-3.266,8.134-0.196,11.312c3.07,3.178,8.134,3.266,11.312,0.196   c0.067-0.064,0.132-0.13,0.196-0.196l40-40c3.123-3.124,3.123-8.188,0-11.312l-32-32C386.588,23.22,381.524,23.22,378.4,26.343z" data-original="#000000" class="" style="fill:#ED1651" data-old_color="#000000"/>
</g><g>
	<path id="SVGCleanerId_17_1_" d="M411.384,464.735l-93.6-43.2l31.888-31.888c3.122-3.126,3.12-8.191-0.006-11.314   c-0.959-0.958-2.146-1.657-3.45-2.03l-112-32c-4.249-1.211-8.675,1.252-9.886,5.501c-0.795,2.789-0.018,5.79,2.03,7.843   l32.592,32.592l-46.904,26.808c-3.836,2.193-5.167,7.08-2.974,10.916c0.352,0.616,0.785,1.182,1.286,1.684l48,48   c1.495,1.499,3.523,2.345,5.64,2.352h144c4.418,0,8-3.581,8-8c0-3.121-1.815-5.957-4.648-7.264L411.384,464.735L411.384,464.735z    M328.8,387.999l-30.4,30.4c-1.482,1.487-2.316,3.5-2.32,5.6H296v40h-16v-72h-0.176c0.062-2.099-0.718-4.136-2.168-5.656   l-18.136-18.176L328.8,387.999z M229.096,425.751L264,405.783v54.904L229.096,425.751z M312,463.999v-27.496l59.608,27.496H312z" data-original="#000000" class="" style="fill:#ED1651" data-old_color="#000000"/>
</g><g>
	<path id="SVGCleanerId_18_1_" d="M64,119.999c2.122,0,4.156-0.844,5.656-2.344l56-56c2.898-3.335,2.544-8.388-0.791-11.286   c-2.998-2.605-7.454-2.617-10.465-0.026l-56,56c-3.124,3.125-3.123,8.19,0.001,11.314C59.887,119.143,61.899,119.984,64,119.999   L64,119.999z" data-original="#000000" class="" style="fill:#ED1651" data-old_color="#000000"/>
</g><g>
	<path id="SVGCleanerId_19_1_" d="M48,79.999c2.122,0,4.156-0.844,5.656-2.344l24-24c3.349-2.882,3.728-7.933,0.847-11.282   c-2.882-3.349-7.933-3.728-11.282-0.847c-0.293,0.252-0.567,0.525-0.821,0.817l-24,24c-3.124,3.125-3.123,8.19,0.001,11.314   C43.887,79.143,45.899,79.984,48,79.999z" data-original="#000000" class="" style="fill:#ED1651" data-old_color="#000000"/>
</g><g>
	<path id="SVGCleanerId_20_1_" d="M149.688,37.655l8-8c2.97-3.271,2.726-8.33-0.545-11.301c-3.046-2.765-7.692-2.77-10.743-0.011   l-8,8c-3.178,3.069-3.266,8.134-0.197,11.312s8.134,3.266,11.312,0.197c0.067-0.064,0.132-0.13,0.197-0.197H149.688z" data-original="#000000" class="" style="fill:#ED1651" data-old_color="#000000"/>
</g><g>
	<path id="SVGCleanerId_21_1_" d="M80,311.999c0.445,0.002,0.889-0.036,1.328-0.112c4.356-0.73,7.296-4.852,6.568-9.208l-8-48   c-0.624-4.374-4.676-7.414-9.05-6.79s-7.414,4.676-6.79,9.05c0.018,0.127,0.039,0.254,0.064,0.38l8,48   C72.764,309.17,76.095,311.994,80,311.999z" data-original="#000000" class="" style="fill:#ED1651" data-old_color="#000000"/>
</g><g>
	<path id="SVGCleanerId_22_1_" d="M48,303.999c0.537,0.004,1.074-0.05,1.6-0.16c4.333-0.866,7.143-5.08,6.278-9.412   c-0.002-0.009-0.004-0.018-0.006-0.028l-8-40c-1.015-4.3-5.324-6.963-9.624-5.948c-4.092,0.966-6.738,4.935-6.056,9.084l8,40   C40.923,301.274,44.19,303.978,48,303.999L48,303.999z" data-original="#000000" class="" style="fill:#ED1651" data-old_color="#000000"/>
</g><g>
	<path id="SVGCleanerId_23_1_" d="M400,311.999c4.418,0.005,8.004-3.573,8.009-7.991c0-0.383-0.027-0.766-0.081-1.145l-8-56   c-0.627-4.374-4.682-7.411-9.056-6.784c-4.374,0.627-7.411,4.682-6.784,9.056l8,56C392.653,309.072,396.023,311.996,400,311.999   L400,311.999z" data-original="#000000" class="" style="fill:#ED1651" data-old_color="#000000"/>
</g><g>
	<path id="SVGCleanerId_24_1_" d="M256,215.999c-4.418,0-8,3.582-8,8v16c0,4.418,3.582,8,8,8s8-3.582,8-8v-16   C264,219.581,260.418,215.999,256,215.999z" data-original="#000000" class="" style="fill:#ED1651" data-old_color="#000000"/>
</g><g>
	<path id="SVGCleanerId_25_1_" d="M285.688,58.343c-3.124-3.123-8.188-3.123-11.312,0l-24,24c-3.123,3.124-3.123,8.188,0,11.312   l18.344,18.344l-10.32,10.344c-3.178,3.07-3.266,8.134-0.196,11.312c3.07,3.178,8.134,3.266,11.312,0.196   c0.067-0.064,0.132-0.13,0.196-0.196l16-16c3.123-3.124,3.123-8.188,0-11.312l-18.368-18.344l18.344-18.344   C288.811,66.531,288.811,61.467,285.688,58.343L285.688,58.343z" data-original="#000000" class="" style="fill:#ED1651" data-old_color="#000000"/>
</g><g>
	<path id="SVGCleanerId_26_1_" d="M66.4,477.655c3.124,3.123,8.188,3.123,11.312,0l48-48c3.123-3.124,3.123-8.188,0-11.312   l-18.368-18.344l26.344-26.344c2.97-3.271,2.726-8.33-0.545-11.301c-3.046-2.766-7.692-2.77-10.743-0.011l-32,32   c-3.123,3.124-3.123,8.188,0,11.312l18.32,18.344L66.4,466.343C63.277,469.467,63.277,474.531,66.4,477.655z" data-original="#000000" class="" style="fill:#ED1651" data-old_color="#000000"/>
</g><g>
	<path id="SVGCleanerId_27_1_" d="M8,343.999h80c4.418,0,8-3.582,8-8s-3.582-8-8-8H8c-4.418,0-8,3.582-8,8S3.582,343.999,8,343.999z   " data-original="#000000" class="" style="fill:#ED1651" data-old_color="#000000"/>
</g><g>
	<path id="SVGCleanerId_28_1_" d="M472,327.999h-80c-4.418,0-8,3.582-8,8s3.582,8,8,8h80c4.418,0,8-3.582,8-8   S476.418,327.999,472,327.999z" data-original="#000000" class="" style="fill:#ED1651" data-old_color="#000000"/>
</g><g>
	<path id="SVGCleanerId_29_1_" d="M392,223.999c4.418,0,8-3.582,8-8v-8c0-4.418-3.582-8-8-8s-8,3.582-8,8v8   C384,220.417,387.582,223.999,392,223.999z" data-original="#000000" class="" style="fill:#ED1651" data-old_color="#000000"/>
</g><g>
	<path id="SVGCleanerId_30_1_" d="M72,231.999c4.418,0,8-3.582,8-8v-8c0-4.418-3.582-8-8-8s-8,3.582-8,8v8   C64,228.417,67.582,231.999,72,231.999z" data-original="#000000" class="" style="fill:#ED1651" data-old_color="#000000"/>
</g><g>
	<path id="SVGCleanerId_31_1_" d="M416.04,408.359c0.102,2.246,1.144,4.345,2.872,5.784l48,40c3.461,2.746,8.493,2.166,11.239-1.295   c2.653-3.344,2.213-8.182-0.999-10.993l-41.272-34.4l17.808-17.808c3.123-3.124,3.123-8.188,0-11.312l-16-16   c-3.255-2.988-8.316-2.771-11.303,0.484c-2.814,3.066-2.807,7.778,0.015,10.836l10.32,10.344l-18.32,18.344   C416.802,403.927,415.946,406.111,416.04,408.359L416.04,408.359z" data-original="#000000" class="" style="fill:#ED1651" data-old_color="#000000"/>
</g><g>
	<path id="SVGCleanerId_32_1_" d="M130.4,197.655l24,24c3.178,3.069,8.243,2.981,11.312-0.197c2.994-3.1,2.994-8.015,0-11.115   l-18.368-18.344l10.344-10.344c3.123-3.124,3.123-8.188,0-11.312l-16-16c-2.97-3.271-8.03-3.515-11.301-0.545   s-3.515,8.03-0.545,11.301c0.177,0.194,0.363,0.38,0.557,0.556l10.321,10.344l-10.32,10.344   C127.277,189.467,127.277,194.531,130.4,197.655z" data-original="#000000" class="" style="fill:#ED1651" data-old_color="#000000"/>
</g></g> </svg>
