<?xml version="1.0"?>
<svg xmlns="http://www.w3.org/2000/svg" id="Line" height="512px" viewBox="0 0 64 64" width="512px" class=""><g><g fill="#c4a2fc"><path d="m13.9 57.18 2.92 2.92a3.07 3.07 0 0 0 4.34 0l12.43-12.43a3.08 3.08 0 0 0 0-4.35l-.76-.75 1.51-1.51 2.22 2.22a.81.81 0 0 0 .29.19l7.31 2.93a1 1 0 0 0 1.08-.23l2.92-2.92a1 1 0 0 0 .22-1.08l-2.92-7.32a.9.9 0 0 0 -.18-.28l-2.22-2.22 1.51-1.51.75.75a3.08 3.08 0 0 0 4.35 0l12.43-12.45a3.08 3.08 0 0 0 0-4.35l-2.92-2.92a3.14 3.14 0 0 0 -4.34 0l-12.43 12.43a3.1 3.1 0 0 0 0 4.35l.76.75-1.51 1.51-2.22-2.22a1 1 0 0 0 -1.42 0l-.41.42-1.61-3.76a1 1 0 0 0 -1.63-.35l-7.31 7.31a1 1 0 0 0 .31 1.69l3.76 1.61-.42.42a1 1 0 0 0 0 1.41l2.22 2.22-1.51 1.51-.75-.75a3.08 3.08 0 0 0 -4.35 0l-12.42 12.41a3.08 3.08 0 0 0 0 4.35zm29.27-21.93-5.9 5.9c.14.15-4.29-4.28-4.44-4.43l5.9-5.9c-.14-.15 4.27 4.29 4.44 4.43z" data-original="#C4A2FC" class="" style="fill:#6CC8EF" data-old_color="#C4A2FC"/><path d="m47.5 51.74a6.23 6.23 0 0 0 6.24-6.24 1 1 0 0 1 2 0 8.25 8.25 0 0 1 -8.24 8.24 1 1 0 0 1 0-2z" data-original="#C4A2FC" class="" style="fill:#6CC8EF" data-old_color="#C4A2FC"/><path d="m47.5 47.6a2.08 2.08 0 0 0 1.5-.6 2 2 0 0 0 .61-1.48 1 1 0 0 1 2 0 4.1 4.1 0 0 1 -4.1 4.1 1 1 0 0 1 0-2z" data-original="#C4A2FC" class="" style="fill:#6CC8EF" data-old_color="#C4A2FC"/></g><path d="m7.9 21.62a19 19 0 0 0 -1.11 6.38 19.13 19.13 0 0 0 25.5 18.07c4.14 3 14 9.5 17.62 5.86 3.47-3.47-2.12-12.44-5.84-17.58a18.84 18.84 0 0 0 1.11-6.35 19.19 19.19 0 0 0 -19.18-19.16 18.88 18.88 0 0 0 -6.31 1.09c-4.24-3.06-14.04-9.46-17.63-5.86-2.81 2.81.25 9.83 5.84 17.55zm9.58-10.77a19.25 19.25 0 0 0 -8.65 8.6c-5-7.25-6.76-12.53-5.34-14s6.19-.07 13.99 5.4zm25.68 17.15a17.18 17.18 0 0 1 -10.53 15.8 109.42 109.42 0 0 1 -12-10.46 107.52 107.52 0 0 1 -10.48-12 17.18 17.18 0 0 1 33 6.67zm-8.67 17.14a19.27 19.27 0 0 0 8.65-8.61c5.45 7.78 6.63 12.68 5.34 14-2.26 2.23-11.34-3.53-13.99-5.39zm-25.09-21.51a115.72 115.72 0 0 0 9.82 11.14 115.85 115.85 0 0 0 11.07 9.8 17.5 17.5 0 0 1 -4.31.56 17.17 17.17 0 0 1 -17.17-17.13 16.93 16.93 0 0 1 .59-4.37z" fill="#151a6a" data-original="#151A6A" class="active-path" style="fill:#ED1651" data-old_color="#151a6a"/><path d="m16 19a4 4 0 1 1 4 4 4 4 0 0 1 -4-4zm2 0a2 2 0 1 0 2-2 2 2 0 0 0 -2 2z" fill="#151a6a" data-original="#151A6A" class="active-path" style="fill:#ED1651" data-old_color="#151a6a"/></g> </svg>
