<?xml version="1.0"?>
<svg xmlns="http://www.w3.org/2000/svg" id="Layer_1" enable-background="new 0 0 512 512" height="512px" viewBox="0 0 512 512" width="512px" class=""><g><g><g><path d="m154.282 414.286c-4.476 4.476-11.724 4.469-16.2-.007l-40.362-40.361c-2.234-2.234-3.359-5.169-3.359-8.096-.007-2.934 1.11-5.862 3.352-8.103.742-.743 1.542-1.414 2.369-2.001 7.241-5.162 17.352-4.497 23.851 2.001l30.349 30.349c3.62 3.62 5.438 8.365 5.431 13.11-.008 4.743-1.811 9.488-5.431 13.108z" fill="#4fe8bc" data-original="#4FE8BC" class="" style="fill:#6CC8EF" data-old_color="#4fe8bc"/><path d="m154.282 414.286c-4.476 4.476-11.724 4.469-16.2-.007l-40.362-40.361c-2.234-2.234-3.359-5.169-3.359-8.096-.007-2.934 1.11-5.862 3.352-8.103.742-.743 1.542-1.414 2.369-2.001l35.171 35.171c4.476 4.476 11.731 4.476 16.2.007.969-.969 1.81-2.022 2.517-3.14l.311.311c3.62 3.62 5.438 8.365 5.431 13.11-.007 4.744-1.81 9.489-5.43 13.109z" fill="#17c6a5" data-original="#17C6A5" class="" style="fill:#2397D7" data-old_color="#17c6a5"/></g><g><path d="m47.346 497.689c-9.03 9.03-23.829 9.15-33.008-.028-6.116-6.116-8.104-14.722-6.067-22.458 1.146-4.356 3.564-8.443 7.234-11.646l91.79-80.066 21.213 21.213-80.059 91.797c-.353.41-.721.806-1.103 1.188z" fill="#466175" data-original="#466175" class="" style="fill:#6CC8EF" data-old_color="#466175"/><path d="m47.346 497.689c-9.03 9.03-23.829 9.15-33.008-.028-6.116-6.116-8.104-14.722-6.067-22.458.163.092.311.212.46.361 9.178 9.178 23.971 9.051 33.001.021.382-.382.749-.778 1.103-1.188l72.387-82.979 13.287 13.287-80.059 91.797c-.354.409-.722.805-1.104 1.187z" fill="#2d4859" data-original="#2D4859" class="" style="fill:#2397D7" data-old_color="#2d4859"/></g><path d="m504.5 221.67c0 118.28-95.88 214.16-214.16 214.16-5.1 0-10.16-.18-15.17-.53-111.2-7.78-199-100.45-199-213.63s87.8-205.86 199-213.64c5.01-.35 10.07-.53 15.17-.53 118.28 0 214.16 95.89 214.16 214.17z" fill="#d9f9f8" data-original="#D9F9F8" class="" style="fill:#FFFFFF" data-old_color="#d9f9f8"/><path d="m504.5 221.67c0 118.28-95.88 214.16-214.16 214.16-5.1 0-10.16-.18-15.17-.53 111.2-7.78 198.99-100.45 198.99-213.63s-87.79-205.86-198.99-213.64c5.01-.35 10.07-.53 15.17-.53 118.28 0 214.16 95.89 214.16 214.17z" fill="#c1eaf4" data-original="#C1EAF4" class="" style="fill:#FFFFFF" data-old_color="#c1eaf4"/><g><g><path d="m445.631 221.549c0 27.41-7.099 53.158-19.567 75.511-24.138 43.3-68.371 73.847-120.108 78.999-5.139.527-10.345.784-15.619.784-58.364 0-109.196-32.184-135.727-79.784-12.468-22.353-19.567-48.1-19.567-75.511 0-27.316 7.045-52.982 19.446-75.281 26.477-47.722 77.39-80.014 135.849-80.014 4.422 0 8.803.189 13.131.554 52.887 4.422 98.242 35.348 122.718 79.459 12.399 22.301 19.444 47.967 19.444 75.283z" fill="#57f3ff" data-original="#57F3FF" class="" style="fill:#6CC8EF" data-old_color="#57f3ff"/><g fill="#55d7ff"><path d="m445.631 221.549c0 27.41-7.099 53.158-19.567 75.511-24.138 43.3-68.371 73.847-120.108 78.999 60.554-24.949 103.164-84.557 103.164-154.118 0-70.521-43.787-130.805-105.653-155.132 52.887 4.422 98.242 35.348 122.718 79.459 12.401 22.299 19.446 47.965 19.446 75.281z" data-original="#55D7FF" class="active-path" style="fill:#6CC8EF" data-old_color="#55D7FF"/><path d="m445.631 221.549c0 27.41-7.099 53.158-19.567 75.511h-271.455c-12.468-22.353-19.567-48.1-19.567-75.511z" data-original="#55D7FF" class="active-path" style="fill:#6CC8EF" data-old_color="#55D7FF"/><path d="m426.185 146.268h-271.697c26.477-47.722 77.39-80.014 135.849-80.014 4.422 0 8.803.189 13.131.554 52.886 4.423 98.241 35.349 122.717 79.46z" data-original="#55D7FF" class="active-path" style="fill:#6CC8EF" data-old_color="#55D7FF"/><path d="m346.685 221.549c0 27.41-2.583 53.158-7.099 75.511-9.628 47.6-28.073 79.784-49.25 79.784s-39.621-32.184-49.25-79.784c-4.517-22.353-7.099-48.1-7.099-75.511 0-27.316 2.556-52.982 7.059-75.281 9.615-47.722 28.087-80.014 49.29-80.014 21.204 0 39.676 32.292 49.29 80.014 4.504 22.299 7.059 47.965 7.059 75.281z" data-original="#55D7FF" class="active-path" style="fill:#6CC8EF" data-old_color="#55D7FF"/></g><path d="m339.627 146.268h-98.58c9.615-47.722 28.087-80.014 49.29-80.014 21.203.001 39.675 32.293 49.29 80.014z" fill="#57bbff" data-original="#57BBFF" class="" style="fill:#2397D7" data-old_color="#57bbff"/><path d="m346.685 221.549c0 27.41-2.583 53.158-7.099 75.511h-98.499c-4.517-22.353-7.099-48.1-7.099-75.511z" fill="#57bbff" data-original="#57BBFF" class="" style="fill:#2397D7" data-old_color="#57bbff"/><path d="m426.185 146.268h-35.186c-18.418-36.065-49.574-64.53-87.532-79.459 52.887 4.422 98.242 35.348 122.718 79.459z" fill="#57bbff" data-original="#57BBFF" class="" style="fill:#2397D7" data-old_color="#57bbff"/><path d="m445.631 221.549c0 27.41-7.099 53.158-19.567 75.511h-34.794c11.413-22.569 17.85-48.087 17.85-75.119v-.392z" fill="#57bbff" data-original="#57BBFF" class="" style="fill:#2397D7" data-old_color="#57bbff"/></g></g></g><g><path d="m290.337 58.87c-89.766 0-162.795 73.03-162.795 162.797s73.03 162.797 162.795 162.797 162.794-73.03 162.794-162.797-73.03-162.797-162.794-162.797zm147.605 155.297h-83.822c-.357-21.129-2.219-41.535-5.447-60.283h72.978c9.443 18.221 15.205 38.646 16.291 60.283zm-25.227-75.284h-66.996c-2.367-10.611-5.206-20.539-8.489-29.586-4.822-13.291-10.456-24.14-16.69-32.324 38.17 7.957 70.986 30.684 92.175 61.91zm-171.161 75.284c.38-22.125 2.426-42.417 5.649-60.283h86.267c3.223 17.866 5.269 38.158 5.649 60.283zm97.565 15c-.381 22.218-2.443 42.589-5.69 60.51h-86.186c-3.246-17.921-5.309-38.292-5.69-60.51zm-48.782-155.297c14.716 0 30.502 24.625 40.026 65.014h-80.052c9.523-40.389 25.31-65.014 40.026-65.014zm-30.204 3.103c-6.235 8.184-11.868 19.034-16.69 32.324-3.282 9.047-6.122 18.976-8.489 29.586h-66.997c21.19-31.226 54.006-53.953 92.176-61.91zm-101.111 76.91h72.978c-3.228 18.748-5.09 39.154-5.447 60.283h-83.824c1.087-21.636 6.849-42.061 16.293-60.283zm-16.293 75.284h83.824c.358 21.214 2.235 41.7 5.486 60.51h-72.901c-9.513-18.28-15.317-38.784-16.409-60.51zm25.382 75.509h66.893c2.357 10.526 5.179 20.377 8.438 29.36 4.822 13.291 10.456 24.14 16.69 32.324-38.077-7.938-70.826-30.574-92.021-61.684zm122.226 64.787c-14.689 0-30.444-24.534-39.972-64.787h79.944c-9.529 40.254-25.284 64.787-39.972 64.787zm30.203-3.102c6.235-8.184 11.868-19.034 16.69-32.324 3.259-8.983 6.082-18.834 8.438-29.36h66.893c-21.194 31.109-53.943 53.745-92.021 61.684zm100.994-76.685h-72.9c3.252-18.81 5.128-39.295 5.486-60.51h83.823c-1.092 21.727-6.896 42.231-16.409 60.51z" data-original="#000000" class="" style="fill:#ED1651" data-old_color="#000000"/><path d="m447.076 64.925c-41.867-41.868-97.531-64.925-156.74-64.925-59.208 0-114.873 23.057-156.739 64.925-41.867 41.867-64.924 97.533-64.924 156.742 0 44.625 13.097 87.237 37.474 123.446-5.053 1.01-9.877 3.448-13.733 7.303-7.389 7.39-7.388 19.414.002 26.804l3.898 3.898-85.743 74.785c-6.416 5.597-10.263 13.687-10.553 22.197s2.997 16.844 9.018 22.865c5.775 5.775 13.678 9.035 21.825 9.035.346 0 .692-.006 1.039-.018 8.51-.29 16.601-4.137 22.198-10.554l14.48-16.603c2.723-3.122 2.399-7.859-.723-10.582s-7.86-2.399-10.582.723l-14.48 16.603c-2.917 3.345-6.968 5.271-11.404 5.422-4.433.149-8.607-1.494-11.747-4.633-3.139-3.139-4.784-7.311-4.633-11.747s2.077-8.486 5.422-11.404l86.514-75.458 11.303 11.303-36.394 41.729c-2.723 3.122-2.399 7.859.723 10.582 3.12 2.722 7.858 2.399 10.582-.723l35.721-40.957 3.898 3.898c3.58 3.58 8.339 5.552 13.402 5.552h.002c5.062 0 9.821-1.971 13.4-5.551 3.855-3.855 6.298-8.675 7.317-13.72 36.207 24.374 78.816 37.469 123.438 37.469 36.237 0 72.192-8.939 103.978-25.852 3.657-1.946 5.044-6.487 3.099-10.144-1.945-3.656-6.484-5.045-10.144-3.098-29.625 15.763-63.144 24.094-96.933 24.094-113.955 0-206.664-92.71-206.664-206.667s92.708-206.664 206.663-206.664 206.664 92.71 206.664 206.667c0 32.59-7.365 63.771-21.891 92.674-13.856 27.571-34.132 52.138-58.635 71.046-3.279 2.53-3.886 7.24-1.355 10.52 2.529 3.278 7.239 3.886 10.52 1.355 26.272-20.273 48.014-46.618 62.873-76.186 15.585-31.013 23.488-64.459 23.488-99.409 0-59.209-23.058-114.875-64.924-156.742zm-328.131 297.349c4.591 5.576 9.477 10.96 14.651 16.134 5.193 5.193 10.598 10.097 16.196 14.703 3.858 4.227 3.522 11.528-.817 15.867-1.54 1.542-4.048 1.541-5.591-.001l-40.363-40.363c-1.542-1.542-1.542-4.05-.001-5.591 4.338-4.337 11.667-4.642 15.925-.749z" data-original="#000000" class="" style="fill:#ED1651" data-old_color="#000000"/></g></g> </svg>
