<?xml version="1.0"?>
<svg xmlns="http://www.w3.org/2000/svg" id="Line" height="512px" viewBox="0 0 64 64" width="512px" class=""><g><g fill="#c4a2fc"><path d="m46.174 33.24 2.807-2.807a3.947 3.947 0 0 0 2.019.567 4 4 0 1 0 -4-4 3.947 3.947 0 0 0 .567 2.019l-2.807 2.807-11.56-11.563a1 1 0 0 0 -1.414 0 18.014 18.014 0 0 0 -1.786 23.349v11.388h-8a5.006 5.006 0 0 0 -5 5 3 3 0 0 0 3 3h28a3 3 0 0 0 3-3 5.006 5.006 0 0 0 -5-5h-8v-5.237a17.949 17.949 0 0 0 19.237-4.046 1 1 0 0 0 0-1.414zm-14.174 21.76v-9.069a18.835 18.835 0 0 0 4 2.921v6.148z" data-original="#C4A2FC" class="" style="fill:#0EA5E59C" data-old_color="#C4A2FC"/><path d="m51 15a1 1 0 0 0 0 2 10.011 10.011 0 0 1 10 10 1 1 0 0 0 2 0 12.013 12.013 0 0 0 -12-12z" data-original="#C4A2FC" class="" style="fill:#0EA5E59C" data-old_color="#C4A2FC"/><path d="m51 19a1 1 0 0 0 0 2 6.006 6.006 0 0 1 6 6 1 1 0 0 0 2 0 8.009 8.009 0 0 0 -8-8z" data-original="#C4A2FC" class="" style="fill:#0EA5E59C" data-old_color="#C4A2FC"/></g><path d="m8.83 8.83a3.872 3.872 0 1 0 5.476 0 3.965 3.965 0 0 0 -5.476 0zm4.061 4.062a1.917 1.917 0 0 1 -2.646 0 1.872 1.872 0 1 1 2.646 0z" fill="#151a6a" data-original="#151A6A" class="active-path" style="fill:#ED1651" data-old_color="#151a6a"/><path d="m50.12 10.8-2.645-2.646-2.646-2.646a3.074 3.074 0 0 0 -4.247 0l-12.326 12.326-2.234-2.234a7.317 7.317 0 0 0 -4.071-2.067 10.568 10.568 0 1 0 -10.382 8.609 10.715 10.715 0 0 0 1.968-.186 7.375 7.375 0 0 0 2.063 4.066l2.234 2.234-12.327 12.326a3 3 0 0 0 0 4.247l5.293 5.291a3 3 0 0 0 4.246 0l12.326-12.32 3.58 3.58a2.6 2.6 0 0 0 3.667 0l6.756-6.756a2.594 2.594 0 0 0 0-3.666l-3.581-3.581 12.326-12.331a3 3 0 0 0 0-4.246zm-8.12-3.877a1 1 0 0 1 1.417 0l1.938 1.938-3.971 3.971-2.646-2.646zm-1.3 14.708-2.646-2.646 3.323-3.323 2.646 2.646zm-1.415 1.416-2.91 2.91-2.642-2.647 2.909-2.91zm-2.643-5.477-2.642-2.646 3.32-3.324 2.646 2.646zm-4.061-1.231 2.646 2.646-2.91 2.91-2.645-2.646zm-27.074 1.291a8.572 8.572 0 1 1 12.123 0 8.583 8.583 0 0 1 -12.123 0zm9.972 3.762a10.551 10.551 0 0 0 5.911-5.917 5.35 5.35 0 0 1 3.217 1.54l13.013 13.013-7.491 7.694-13.114-13.115a5.359 5.359 0 0 1 -1.536-3.215zm6.421 10.926-2.91 2.909-2.646-2.646 2.91-2.909zm-3.587 11.71-2.646-2.647 3.323-3.323 2.646 2.647zm-4.061-4.062-2.652-2.647 3.324-3.319 2.646 2.647zm-7.33 2.034 3.263-3.262 2.646 2.646-3.97 3.971-1.939-1.941a1 1 0 0 1 0-1.414zm6.708 6.708a1 1 0 0 1 -1.416 0l-1.938-1.938 3.971-3.97 2.646 2.647zm9.417-9.415-2.647-2.65 2.91-2.91 2.647 2.647zm16.913-6.093-6.76 6.76a.594.594 0 0 1 -.837 0l-.822-.823 7.491-7.693.924.925a.592.592 0 0 1 .004.831zm8.745-19.57-3.263 3.263-2.642-2.646 3.971-3.971 1.938 1.939a1 1 0 0 1 -.004 1.415z" fill="#151a6a" data-original="#151A6A" class="active-path" style="fill:#ED1651" data-old_color="#151a6a"/></g> </svg>
