<?xml version="1.0"?>
<svg xmlns="http://www.w3.org/2000/svg" height="512px" viewBox="0 0 64 64" width="512px" class=""><g><g id="Online_service" data-name="Online service"><path d="m21 12.333v2.334a2.3 2.3 0 0 1 -2.25 2.333h-13.5a2.3 2.3 0 0 1 -2.25-2.333v-2.334z" fill="#c6c5ca" data-original="#C6C5CA" class="" style="fill:#6CC8EF" data-old_color="#c6c5ca"/><path d="m21 5.333v7h-18v-7a2.3 2.3 0 0 1 2.25-2.333h13.5a2.3 2.3 0 0 1 2.25 2.333z" fill="#00d7df" data-original="#00D7DF" class="" style="fill:#6CC8EF" data-old_color="#00d7df"/><path d="m21 12.333v2.334a2.3 2.3 0 0 1 -2.25 2.333h-4.5a2.3 2.3 0 0 0 2.25-2.333v-2.334z" fill="#898890" data-original="#898890" class="" style="fill:#6CC8EF" data-old_color="#898890"/><path d="m21 5.333v7h-4.5v-7a2.3 2.3 0 0 0 -2.25-2.333h4.5a2.3 2.3 0 0 1 2.25 2.333z" fill="#009698" data-original="#009698" class="" style="fill:#2397D7" data-old_color="#009698"/><path d="m61 51v2.25a2.257 2.257 0 0 1 -2.25 2.25h-13.5a2.257 2.257 0 0 1 -2.25-2.25v-2.25z" fill="#c6c5ca" data-original="#C6C5CA" class="" style="fill:#6CC8EF" data-old_color="#c6c5ca"/><path d="m61 44.25v6.75h-18v-6.75a2.257 2.257 0 0 1 2.25-2.25h13.5a2.257 2.257 0 0 1 2.25 2.25z" fill="#00d7df" data-original="#00D7DF" class="" style="fill:#6CC8EF" data-old_color="#00d7df"/><path d="m61 51v2.25a2.257 2.257 0 0 1 -2.25 2.25h-4.5a2.257 2.257 0 0 0 2.25-2.25v-2.25z" fill="#898890" data-original="#898890" class="" style="fill:#6CC8EF" data-old_color="#898890"/><path d="m61 44.25v6.75h-4.5v-6.75a2.257 2.257 0 0 0 -2.25-2.25h4.5a2.257 2.257 0 0 1 2.25 2.25z" fill="#009698" data-original="#009698" class="" style="fill:#2397D7" data-old_color="#009698"/><path d="m61 15-1 4h-22l-1-4h2 8v1h4v-1h8z" fill="#898890" data-original="#898890" class="" style="fill:#6CC8EF" data-old_color="#898890"/><path d="m59 3v12h-8v1h-4v-1h-8v-12z" fill="#00d7df" data-original="#00D7DF" class="" style="fill:#6CC8EF" data-old_color="#00d7df"/><path d="m53.93 56 .98 5h-5.82l.98-5z" fill="#c6c5ca" data-original="#C6C5CA" class="" style="fill:#6CC8EF" data-old_color="#c6c5ca"/><path d="m27 57-1 4h-22l-1-4h2 8v1h4v-1h8z" fill="#898890" data-original="#898890" class="" style="fill:#6CC8EF" data-old_color="#898890"/><path d="m25 45v12h-8v1h-4v-1h-8v-12z" fill="#00d7df" data-original="#00D7DF" class="" style="fill:#6CC8EF" data-old_color="#00d7df"/><path d="m27 57-1 4h-4l1-4z" fill="#57565c" data-original="#57565C" class="" style="fill:#2397D7" data-old_color="#57565c"/><path d="m21 45h4v12h-4z" fill="#009698" data-original="#009698" class="" style="fill:#2397D7" data-old_color="#009698"/><path d="m61 15-1 4h-4l1-4z" fill="#57565c" data-original="#57565C" class="" style="fill:#2397D7" data-old_color="#57565c"/><path d="m55 3h4v12h-4z" fill="#009698" data-original="#009698" class="" style="fill:#2397D7" data-old_color="#009698"/><path d="m13.93 17 .98 5h-5.82l.98-5z" fill="#c6c5ca" data-original="#C6C5CA" class="" style="fill:#6CC8EF" data-old_color="#c6c5ca"/><circle cx="32" cy="32" fill="#57a4ff" r="10" data-original="#57A4FF" class="active-path" style="fill:#6CC8EF" data-old_color="#57a4ff"/><path d="m42 32a10 10 0 0 1 -18.78 4.78 9.9 9.9 0 0 0 4.78 1.22 10 10 0 0 0 10-10 9.9 9.9 0 0 0 -1.22-4.78 9.984 9.984 0 0 1 5.22 8.78z" fill="#006df0" data-original="#006DF0" class="" style="fill:#2397D7" data-old_color="#006df0"/><path d="m32 21a11 11 0 1 0 11 11 11.007 11.007 0 0 0 -11-11zm-6.72 16.97a9 9 0 0 1 -2.22-4.97h2.64a17.551 17.551 0 0 0 .7 4.21 10.5 10.5 0 0 0 -1.12.76zm.42-6.97h-2.64a9 9 0 0 1 2.22-4.97 10.5 10.5 0 0 0 1.12.76 17.551 17.551 0 0 0 -.7 4.21zm1.1 8.33c.11-.07.22-.15.33-.23.11.23.23.46.35.67-.23-.14-.46-.28-.68-.44zm.33-14.43c-.11-.08-.22-.16-.33-.23.22-.16.45-.3.68-.44-.12.21-.24.44-.35.67zm3.87 15.81a5.588 5.588 0 0 1 -2.07-2.5 9.158 9.158 0 0 1 2.07-.48zm0-5a11.367 11.367 0 0 0 -2.77.63 15.676 15.676 0 0 1 -.53-3.34h3.3zm0-4.71h-3.3a15.676 15.676 0 0 1 .53-3.34 11.367 11.367 0 0 0 2.77.63zm0-4.73a9.158 9.158 0 0 1 -2.07-.48 5.588 5.588 0 0 1 2.07-2.5zm7.72-.24a9 9 0 0 1 2.22 4.97h-2.64a17.551 17.551 0 0 0 -.7-4.21 10.5 10.5 0 0 0 1.12-.76zm-5.72-2.74a5.588 5.588 0 0 1 2.07 2.5 9.158 9.158 0 0 1 -2.07.48zm0 17.42v-2.98a9.158 9.158 0 0 1 2.07.48 5.588 5.588 0 0 1 -2.07 2.5zm2.77-4.37a11.367 11.367 0 0 0 -2.77-.63v-2.71h3.3a15.676 15.676 0 0 1 -.53 3.34zm-2.77-5.34v-2.71a11.367 11.367 0 0 0 2.77-.63 15.676 15.676 0 0 1 .53 3.34zm3.52 8.77c.12-.21.24-.44.35-.67.11.08.22.16.33.23-.22.16-.45.3-.68.44zm.35-14.87c-.11-.23-.23-.46-.35-.67.23.14.46.28.68.44-.11.07-.22.15-.33.23zm1.85 13.07a10.5 10.5 0 0 0 -1.12-.76 17.551 17.551 0 0 0 .7-4.21h2.64a9 9 0 0 1 -2.22 4.97z" data-original="#000000" class="" style="fill:#ED1651" data-old_color="#000000"/><path d="m59 41h-14a3.009 3.009 0 0 0 -3 3v10a3.009 3.009 0 0 0 3 3h3.85l-.74 3.81a.993.993 0 0 0 .2.83 1.013 1.013 0 0 0 .78.36h5.82a1.013 1.013 0 0 0 .78-.36.993.993 0 0 0 .2-.83l-.74-3.81h3.85a3.009 3.009 0 0 0 3-3v-10a3.009 3.009 0 0 0 -3-3zm-8.7 19 .59-3h2.22l.59 3zm9.7-6a1 1 0 0 1 -1 1h-14a1 1 0 0 1 -1-1v-1h16zm0-3h-16v-7a1 1 0 0 1 1-1h14a1 1 0 0 1 1 1z" data-original="#000000" class="" style="fill:#ED1651" data-old_color="#000000"/><path d="m19 2h-14a3.009 3.009 0 0 0 -3 3v10a3.009 3.009 0 0 0 3 3h3.85l-.74 3.81a.993.993 0 0 0 .2.83 1.013 1.013 0 0 0 .78.36h5.82a1.013 1.013 0 0 0 .78-.36.993.993 0 0 0 .2-.83l-.74-3.81h3.85a3.009 3.009 0 0 0 3-3v-10a3.009 3.009 0 0 0 -3-3zm-8.7 19 .59-3h2.22l.59 3zm9.7-6a1 1 0 0 1 -1 1h-14a1 1 0 0 1 -1-1v-1h16zm0-3h-16v-7a1 1 0 0 1 1-1h14a1 1 0 0 1 1 1z" data-original="#000000" class="" style="fill:#ED1651" data-old_color="#000000"/><path d="m19 29h-5a1 1 0 0 1 -1-1v-3h-2v3a3 3 0 0 0 3 3h5z" data-original="#000000" class="" style="fill:#ED1651" data-old_color="#000000"/><path d="m11 36v6h2v-6a1 1 0 0 1 1-1h5v-2h-5a3 3 0 0 0 -3 3z" data-original="#000000" class="" style="fill:#ED1651" data-old_color="#000000"/><path d="m53 22h-2v6a1 1 0 0 1 -1 1h-6v2h6a3 3 0 0 0 3-3z" data-original="#000000" class="" style="fill:#ED1651" data-old_color="#000000"/><path d="m53 39v-3a3 3 0 0 0 -3-3h-6v2h6a1 1 0 0 1 1 1v3z" data-original="#000000" class="" style="fill:#ED1651" data-old_color="#000000"/><path d="m61.79 14.38a1 1 0 0 0 -.79-.38h-1v-11a1 1 0 0 0 -1-1h-20a1 1 0 0 0 -1 1v11h-1a1 1 0 0 0 -.79.38 1.022 1.022 0 0 0 -.18.86l1 4a1 1 0 0 0 .97.76h22a1 1 0 0 0 .97-.76l1-4a1.022 1.022 0 0 0 -.18-.86zm-21.79-10.38h18v10h-7a1 1 0 0 0 -1 1h-2a1 1 0 0 0 -1-1h-7zm19.22 14h-20.44l-.5-2h7.72a1 1 0 0 0 1 1h4a1 1 0 0 0 1-1h7.72z" data-original="#000000" class="" style="fill:#ED1651" data-old_color="#000000"/><path d="m27.79 56.38a1 1 0 0 0 -.79-.38h-1v-11a1 1 0 0 0 -1-1h-20a1 1 0 0 0 -1 1v11h-1a1 1 0 0 0 -.79.38 1.022 1.022 0 0 0 -.18.86l1 4a1 1 0 0 0 .97.76h22a1 1 0 0 0 .97-.76l1-4a1.022 1.022 0 0 0 -.18-.86zm-21.79-10.38h18v10h-7a1 1 0 0 0 -1 1h-2a1 1 0 0 0 -1-1h-7zm19.22 14h-20.44l-.5-2h7.72a1 1 0 0 0 1 1h4a1 1 0 0 0 1-1h7.72z" data-original="#000000" class="" style="fill:#ED1651" data-old_color="#000000"/></g></g> </svg>
